#tb 0: 1/25
0,          0,          0,        1,   152064, 0x01f46ada
0,          1,          1,        1,   152064, 0xabf1a476
0,          2,          2,        1,   152064, 0x993645c7
0,          3,          3,        1,   152064, 0x88ec1e0b
0,          4,          4,        1,   152064, 0xcc78280f
0,          5,          5,        1,   152064, 0xbc753bed
0,          6,          6,        1,   152064, 0xe46794a2
0,          7,          7,        1,   152064, 0x8832ed49
0,          8,          8,        1,   152064, 0x8695bc6c
0,          9,          9,        1,   152064, 0x287687af
0,         10,         10,        1,   152064, 0x5c5bcb5d
0,         11,         11,        1,   152064, 0x40089791
0,         12,         12,        1,   152064, 0x6bad80d2
0,         13,         13,        1,   152064, 0x4b692a29
0,         14,         14,        1,   152064, 0xb80cf92f
0,         15,         15,        1,   152064, 0xba67ca50
0,         16,         16,        1,   152064, 0x06f6bd6b
0,         17,         17,        1,   152064, 0x2fb593cd
0,         18,         18,        1,   152064, 0xcf46e894
0,         19,         19,        1,   152064, 0x056e2d50
0,         20,         20,        1,   152064, 0x6bb1b5b9
0,         21,         21,        1,   152064, 0x3af33845
0,         22,         22,        1,   152064, 0xf79b225b
0,         23,         23,        1,   152064, 0xeaf44918
0,         24,         24,        1,   152064, 0x8e41c78b
0,         25,         25,        1,   152064, 0x17f9a5bb
0,         26,         26,        1,   152064, 0xfcbc7bd7
0,         27,         27,        1,   152064, 0x608a5c05
0,         28,         28,        1,   152064, 0x3bc7d67c
0,         29,         29,        1,   152064, 0x40abc1ad
0,         30,         30,        1,   152064, 0xc80f8eee
0,         31,         31,        1,   152064, 0x22a79ac6
0,         32,         32,        1,   152064, 0x08698cc6
0,         33,         33,        1,   152064, 0xe391d553
0,         34,         34,        1,   152064, 0xe4f24f12
0,         35,         35,        1,   152064, 0x06639cc4
0,         36,         36,        1,   152064, 0x5f7dbcb2
0,         37,         37,        1,   152064, 0x9fe0a8aa
0,         38,         38,        1,   152064, 0xd0c97de3
0,         39,         39,        1,   152064, 0xf12b90ec
0,         40,         40,        1,   152064, 0x0f246f00
0,         41,         41,        1,   152064, 0x40e277f7
0,         42,         42,        1,   152064, 0x6886fa90
0,         43,         43,        1,   152064, 0xd2adbade
0,         44,         44,        1,   152064, 0xb64f3c41
0,         45,         45,        1,   152064, 0x8cca9dd1
0,         46,         46,        1,   152064, 0x59166815
0,         47,         47,        1,   152064, 0x109d9ded
0,         48,         48,        1,   152064, 0x3dd74273
0,         49,         49,        1,   152064, 0x01432a99
